<svg width="296" height="70" viewBox="0 0 296 70" fill="none" xmlns="http://www.w3.org/2000/svg">
<path fill-rule="evenodd" clip-rule="evenodd" d="M138.026 2.67555C136.52 3.42841 133.272 5.08843 130.803 6.24904C128.333 7.40965 128.884 6.98525 128.696 7.17768C128.508 7.37011 127.931 7.29781 129.702 8.4942C131.473 9.69059 134.772 10.6413 135.51 10.3949C135.667 10.3425 135.891 10.2252 136.079 10.2141C136.09 10.4019 136.054 10.3537 135.861 10.7187C135.669 11.0836 136.231 10.1536 134.308 12.9844C132.384 15.8151 128.037 20.3999 123.401 23.84C120.77 25.7921 116.622 27.4199 112.262 28.535C109.139 29.0826 102.743 29.4818 98.6115 28.8981C94.4795 28.3144 94.6947 28.3583 95.9275 29.3089C97.1603 30.2594 98.0952 30.7058 102.126 31.1825C106.158 31.6591 109.988 31.3258 112.902 30.8286C118.517 29.8703 123.592 27.4853 125.18 26.4167C129.988 23.5347 133.363 20.0188 135.866 17.4647C138.37 14.9107 136.74 16.584 136.769 16.5742C136.797 16.5644 136.64 16.4394 137.77 17.1927C138.901 17.9459 141.659 18.9596 142.04 18.7649C142.422 18.5703 142.322 18.3241 142.919 14.2145C143.515 10.1048 143.927 7.86123 144.216 6.21098C144.505 4.56072 144.246 2.41531 144.216 2.06797C144.187 1.72064 144.257 -0.32769 143.144 0.0451578C142.485 0.266102 142.512 0.299514 141.485 0.873853C140.457 1.44819 139.532 1.9227 138.026 2.67555Z" fill="white"/>
<path d="M213.257 26.9821H204.186L204.241 30.8304C206.734 31.7466 208.53 32.9469 209.629 34.4312C210.765 35.9705 211.333 38.0504 211.333 40.6709C211.333 44.4458 209.821 47.6893 206.798 50.4014C206.23 50.9145 205.359 51.5834 204.186 52.408C202.739 53.4342 201.823 53.9473 201.438 53.9473C201.053 53.9473 199.285 52.3347 196.133 49.1095C198.075 48.9996 200.1 48.3765 202.207 47.2404C204.205 46.1775 205.9 44.8765 207.293 43.3372C208.795 41.6879 209.547 39.9379 209.547 38.0871C209.547 36.2546 208.53 34.981 206.495 34.2663C205.506 33.9181 204.525 33.7624 203.554 33.799C197.617 34.0372 193.979 37.4915 192.642 44.1618L187.007 41.8528C187.007 40.3135 187.602 38.591 188.794 36.6852C189.233 35.9889 189.462 35.5949 189.481 35.5032C189.481 34.642 188.244 34.2113 185.77 34.2113C182.6 34.2113 180.135 35.604 178.376 38.3894C177.606 39.6172 177.221 40.845 177.221 42.0727C177.221 44.6382 178.403 47.0663 180.767 49.3569L185.99 54.4146C182.801 53.3151 179.842 51.7208 177.111 49.6318C173.465 46.8464 171.641 43.8594 171.641 40.6709C171.641 36.6394 173.675 33.6341 177.744 31.655C179.521 30.7937 181.354 30.3631 183.241 30.3631C185.66 30.3631 188.079 31.0869 190.498 32.5346C191.414 33.0843 191.945 33.3775 192.092 33.4142C193.485 32.8095 195.015 32.1589 196.682 31.4626C197.562 31.0961 198.451 30.8487 199.349 30.7204L199.404 26.9821H170.817V23.6836H213.257V26.9821Z" fill="white"/>
<path d="M239.783 26.9821H221.476V31.3801C221.549 31.3801 221.623 31.4168 221.696 31.4901C221.769 31.5634 221.833 31.6 221.888 31.6C221.742 31.6 221.659 31.5909 221.641 31.5725C221.641 31.4809 223.006 31.1877 225.737 30.6929C226.745 30.5097 227.743 30.4181 228.733 30.4181C232.856 30.4181 235.504 31.5725 236.677 33.8815C237.465 35.4208 237.859 38.5269 237.859 43.1997V53.7824C237.474 53.6358 236.017 53.0402 233.488 51.9957C233.488 51.4093 233.369 51.0337 233.131 50.8687C232.16 51.4368 231.362 51.8674 230.739 52.1606C228.76 53.0952 226.46 53.5625 223.84 53.5625C220.23 53.5625 217.445 52.4264 215.484 50.1541C214.531 49.0546 214.054 47.8268 214.054 46.4707C214.054 44.9498 214.806 43.438 216.308 41.9353C219.222 39.0216 222.841 37.5648 227.166 37.5648C229.786 37.5648 231.894 38.1695 233.488 39.379V36.8501C232.682 35.8239 231.894 35.1367 231.124 34.7886C230.373 34.4404 229.338 34.2846 228.018 34.3213C225.068 34.3763 222.365 34.9168 219.909 35.943C218.81 36.4012 217.738 36.8135 216.693 37.18V35.1459C216.932 34.9443 217.28 34.642 217.738 34.2388C217.811 34.1472 217.857 34.0922 217.875 34.0739V26.9821H212.24V23.6836H239.783V26.9821ZM233.488 44.3817C233.488 43.5754 232.526 42.8516 230.602 42.2102C229.008 41.6788 227.679 41.413 226.616 41.413C222.75 41.413 219.653 42.8057 217.325 45.5911C216.391 46.709 215.924 47.6252 215.924 48.3399C216.308 49.6776 217.82 50.3465 220.459 50.3465C223.868 50.3465 226.983 49.4944 229.805 47.7901C232.26 46.3058 233.488 45.1697 233.488 44.3817Z" fill="white"/>
<path d="M267.215 26.9821H239.425V23.6836H267.215V26.9821ZM264.934 36.8501C264.934 37.9313 264.283 39.1499 262.982 40.506C261.883 41.6604 260.728 42.5217 259.519 43.0898L255.396 38.4169C256.642 38.307 257.824 37.8488 258.942 37.0425C260.224 36.1263 260.866 35.0818 260.866 33.909C260.866 33.2859 260.462 32.7545 259.656 32.3147C258.96 31.9115 258.273 31.71 257.595 31.71C256.184 31.71 254.672 32.388 253.059 33.744C249.779 36.4928 248.139 39.5347 248.139 42.8699V54.5246L242.861 51.7758V31.4351H248.194V33.5241C248.982 32.7362 250.613 31.9115 253.087 31.0503C254.296 30.6288 255.542 30.4181 256.825 30.4181C259.482 30.4181 261.736 31.4351 263.587 33.4692C264.485 34.4587 264.934 35.5857 264.934 36.8501Z" fill="white"/>
<path d="M295.335 57.9605C295.335 61.3689 293.686 63.0732 290.387 63.0732C288.921 63.0732 286.795 62.3768 284.01 60.9841C280.931 59.4448 278.348 58.6752 276.259 58.6752C271.769 58.6752 267.536 60.4435 263.559 63.9802C261.654 65.6845 260.16 67.6911 259.079 70C259.006 69.7068 258.969 69.2395 258.969 68.5981C258.969 66.3991 259.629 64.2093 260.948 62.0286C262.158 60.0129 263.724 58.327 265.648 56.9709C267.811 55.45 270.275 54.6895 273.043 54.6895C274.948 54.6895 276.607 55.0102 278.018 55.6515C278.769 55.9997 280.217 56.8976 282.361 58.3453C284.193 59.5914 285.595 60.2145 286.566 60.2145C288.985 60.2145 290.909 59.2158 292.339 57.2183C292.962 56.3571 293.273 55.5141 293.273 54.6895C293.273 53.2418 292.834 52.0324 291.954 51.0611C291.074 50.0716 289.92 49.5768 288.491 49.5768C287.171 49.5768 285 50.2457 281.976 51.5834C278.952 52.9028 276.781 53.5625 275.461 53.5625C274.49 53.5625 273.317 53.0769 271.943 52.1057C269.084 50.0716 267.655 48.175 267.655 46.4158C267.655 45.4445 268.196 44.5558 269.277 43.7495C270.248 42.9982 271.247 42.5767 272.273 42.4851L272.328 42.1827L270.981 40.2861C270.23 39.2232 269.854 38.0779 269.854 36.8501C269.854 32.6354 273.299 30.528 280.189 30.528C280.391 30.4914 280.528 30.3264 280.602 30.0332V26.9821H266.363V23.6836H294.62V26.9821H284.862V31.6C284.862 32.4613 285.11 32.9927 285.604 33.1943C285.916 33.1943 286.31 32.9103 286.786 32.3422L287.831 31.0778C288.106 30.8029 288.6 30.6196 289.315 30.528C290.47 30.528 291.569 31.1877 292.614 32.5071C293.09 33.1118 293.402 33.7166 293.548 34.3213L290.662 37.6198C290.625 36.7768 290.451 36.0072 290.14 35.3108C289.718 34.3763 289.169 33.909 288.491 33.909C288.234 33.909 287.932 34.0281 287.583 34.2663C287.235 34.5045 287.061 34.7428 287.061 34.981C287.061 35.2559 287.18 35.5857 287.419 35.9705C287.693 36.4287 287.849 36.7127 287.886 36.8226C288.014 37.2441 288.078 37.7755 288.078 38.4169C288.078 40.8908 287.07 42.5675 285.055 43.4471C283.717 44.0335 281.609 44.3267 278.732 44.3267C275.067 44.3267 272.566 45.1422 271.228 46.7731C270.697 47.4145 270.44 47.9367 270.459 48.3399C270.477 48.8896 270.752 49.3752 271.283 49.7967C271.815 50.1999 272.365 50.4014 272.933 50.4014C273.977 50.4014 275.984 49.6776 278.952 48.2299C282.452 46.5257 285.274 45.6553 287.419 45.6186C289.379 45.582 291.029 46.4524 292.366 48.2299C293.447 49.641 294.226 51.4368 294.703 53.6175C295.124 55.5416 295.335 56.9893 295.335 57.9605ZM284.642 35.8881C284.642 33.6707 283.46 32.5621 281.096 32.5621C279.191 32.5621 277.386 33.2309 275.681 34.5687C273.849 35.998 272.933 37.6381 272.933 39.4889C272.933 40.4968 273.317 41.3581 274.087 42.0727C274.875 42.7874 275.773 43.1448 276.781 43.1448C277.825 43.1631 279.007 42.7874 280.327 42.0178C281.5 41.3397 282.471 40.5518 283.24 39.6538C284.175 38.5543 284.642 37.2991 284.642 35.8881Z" fill="white"/>
<path d="M15.6123 39.2016H28.2485L25.4188 53.3503H19.6617L18.7347 50.2278H18.5396C17.6939 51.2036 16.6856 52.033 15.5147 52.716C14.3763 53.3991 12.8801 53.7406 11.0262 53.7406C9.59505 53.7406 8.21272 53.5129 6.87917 53.0576C5.57814 52.5697 4.40722 51.8216 3.3664 50.8133C2.35811 49.7725 1.54497 48.4227 0.92698 46.7639C0.308993 45.105 0 43.1047 0 40.7629C0 38.2259 0.390307 35.819 1.17092 33.5422C1.95154 31.2654 3.12246 29.2651 4.68369 27.5412C6.24492 25.7848 8.19645 24.4025 10.5383 23.3942C12.8801 22.3859 15.6123 21.8818 18.7347 21.8818C21.1416 21.8818 23.2395 22.1582 25.0285 22.7112C26.8174 23.2641 28.5087 23.8821 30.1024 24.5651L28.2485 34.0301H20.0032C20.0358 33.6723 20.0846 33.2495 20.1496 32.7616C20.2147 32.2737 20.2635 31.7695 20.296 31.2491C20.3285 30.6962 20.361 30.1595 20.3936 29.6391C20.4261 29.1187 20.4423 28.6634 20.4423 28.273C20.4423 28.0128 20.4261 27.7201 20.3936 27.3949C20.361 27.0371 20.2797 26.6956 20.1496 26.3703C20.0195 26.045 19.8244 25.7848 19.5642 25.5897C19.3039 25.362 18.9299 25.2482 18.442 25.2482C17.5964 25.2482 16.8157 25.6059 16.1002 26.3215C15.4171 27.0045 14.7992 27.9315 14.2462 29.1024C13.6933 30.2408 13.2054 31.5419 12.7826 33.0055C12.3923 34.4692 12.0507 35.9653 11.758 37.4941C11.4978 38.9902 11.2864 40.4701 11.1238 41.9338C10.9937 43.3649 10.9286 44.6172 10.9286 45.6905C10.9286 46.0158 10.9449 46.4223 10.9774 46.9102C11.0099 47.3981 11.1075 47.886 11.2701 48.3739C11.4653 48.8292 11.7255 49.2358 12.0507 49.5936C12.4085 49.9188 12.9127 50.0815 13.5632 50.0815C14.6365 50.0815 15.6773 49.496 16.6856 48.3251C17.6939 47.1542 18.4583 45.2026 18.9787 42.4705H14.8805L15.6123 39.2016Z" fill="white"/>
<path d="M32.5712 32.3713H40.5237L41.2556 36.0304H41.5971C42.3452 34.8595 43.3047 33.8674 44.4756 33.0543C45.6465 32.2412 47.1915 31.8346 49.1105 31.8346C49.2406 31.8346 49.4357 31.8509 49.696 31.8834C49.9887 31.8834 50.2977 31.9322 50.6229 32.0298C50.9807 32.0948 51.3385 32.2086 51.6963 32.3713C52.0866 32.5014 52.4606 32.6965 52.8184 32.9567L50.6717 43.0071H45.3538C45.2887 40.9906 45.1098 39.592 44.8171 38.8113C44.5244 37.9982 44.0528 37.5916 43.4022 37.5916C43.077 37.5916 42.7192 37.6729 42.3289 37.8356C41.9711 37.9657 41.5971 38.2747 41.2068 38.7626L38.0843 53.3503H28.1315L32.5712 32.3713Z" fill="white"/>
<path d="M66.5962 31.8346C70.4667 31.8346 73.2802 32.5176 75.0366 33.8837C76.8905 35.3148 77.8175 37.6892 77.8175 41.0068C77.8175 43.0559 77.476 44.9099 76.793 46.5687C76.1099 48.195 75.1504 49.5448 73.9144 50.6181C71.4425 52.6998 67.8647 53.7406 63.181 53.7406C59.1803 53.7406 56.3181 52.9762 54.5942 51.4475C52.7403 49.8538 51.8133 47.4632 51.8133 44.2756C51.8133 42.1615 52.2361 40.2425 53.0818 38.5186C53.96 36.7948 55.2122 35.3636 56.8385 34.2252C59.2129 32.6315 62.4654 31.8346 66.5962 31.8346ZM63.2786 50.423C64.0917 50.423 64.791 49.9676 65.3765 49.0569C65.9945 48.1462 66.4823 47.0403 66.8401 45.7393C67.1979 44.4057 67.4581 43.0397 67.6207 41.6411C67.8159 40.2099 67.9135 38.974 67.9135 37.9332C67.9135 37.0224 67.8159 36.3394 67.6207 35.884C67.4581 35.3962 67.0841 35.1522 66.4986 35.1522C65.6204 35.1522 64.8561 35.6238 64.2055 36.5671C63.5876 37.5103 63.0834 38.6325 62.6931 39.9335C62.3028 41.2345 62.0101 42.568 61.8149 43.9341C61.6523 45.3002 61.571 46.4061 61.571 47.2517C61.571 49.3659 62.1402 50.423 63.2786 50.423Z" fill="white"/>
<path d="M79.0208 32.3713H89.364L91.0716 46.7151L96.975 32.3713H106.294L107.952 46.7151L113.856 32.3713H119.027L109.318 53.3503H99.1217L97.3165 42.7144L92.3889 53.3503H82.1921L79.0208 32.3713Z" fill="white"/>
<path d="M119.176 32.3713C120.38 32.1111 121.437 31.8183 122.348 31.4931C123.258 31.1678 124.088 30.7613 124.836 30.2734C125.616 29.7855 126.348 29.1838 127.031 28.4682C127.747 27.7526 128.511 26.8744 129.324 25.8336H134.35L132.935 32.3713H136.74L136.106 35.6401H132.252L130.251 45.1538C130.089 45.9019 129.959 46.5687 129.861 47.1542C129.763 47.7396 129.715 48.195 129.715 48.5202C129.715 49.1707 129.942 49.5773 130.398 49.7399C130.886 49.9026 131.78 49.9839 133.081 49.9839L132.349 53.3503C132.122 53.4153 131.764 53.4641 131.276 53.4967C130.821 53.5292 130.3 53.5617 129.715 53.5942C129.162 53.6593 128.576 53.6918 127.958 53.6918C127.373 53.7243 126.852 53.7406 126.397 53.7406C125.584 53.7406 124.787 53.6755 124.006 53.5454C123.226 53.4479 122.526 53.2364 121.909 52.9112C121.291 52.5534 120.786 52.0493 120.396 51.3988C120.038 50.7482 119.859 49.87 119.859 48.7642C119.859 48.3739 119.876 47.886 119.908 47.3005C119.973 46.7151 120.087 46.0646 120.25 45.349L122.299 35.6401H118.493L119.176 32.3713Z" fill="white"/>
<path d="M148.332 35.4937H148.674C149.292 34.8757 150.007 34.3065 150.821 33.7861C151.504 33.3308 152.317 32.9242 153.26 32.5664C154.203 32.2086 155.26 32.0298 156.431 32.0298C158.123 32.0298 159.521 32.4688 160.627 33.347C161.733 34.1927 162.286 35.3636 162.286 36.8598C162.286 37.3152 162.237 37.8356 162.14 38.421C162.042 38.974 161.928 39.5757 161.798 40.2262C161.668 40.8442 161.522 41.4784 161.359 42.129C161.229 42.7469 161.115 43.3161 161.017 43.8365L158.968 53.3503H149.064L151.748 40.6165C151.813 40.1937 151.894 39.7708 151.992 39.348C152.089 38.8927 152.138 38.4861 152.138 38.1283C152.138 37.6404 152.008 37.2501 151.748 36.9574C151.52 36.6321 151.162 36.4695 150.674 36.4695C150.089 36.4695 149.52 36.6809 148.967 37.1037C148.446 37.5266 148.04 37.9006 147.747 38.2259L144.527 53.3503H134.574L141.502 20.5645H151.504L148.332 35.4937Z" fill="white"/>
</svg>
