<svg width="335" height="80" viewBox="0 0 335 80" fill="none" xmlns="http://www.w3.org/2000/svg">
<path fill-rule="evenodd" clip-rule="evenodd" d="M157.966 3.05777C156.242 3.91818 152.525 5.81535 149.699 7.14176C146.873 8.46817 147.503 7.98314 147.288 8.20306C147.073 8.42299 146.413 8.34035 148.439 9.70765C150.466 11.075 154.241 12.1615 155.086 11.8799C155.265 11.82 155.523 11.6859 155.738 11.6733C155.75 11.8879 155.709 11.8328 155.488 12.2499C155.268 12.667 155.911 11.6042 153.71 14.8393C151.509 18.0744 146.534 23.3141 141.228 27.2457C138.217 29.4767 133.47 31.337 128.479 32.6115C124.905 33.2372 117.586 33.6935 112.857 33.0264C108.128 32.3593 108.375 32.4095 109.786 33.4958C111.196 34.5822 112.266 35.0924 116.88 35.6371C121.494 36.1819 125.877 35.8009 129.212 35.2327C135.638 34.1375 141.446 31.4117 143.263 30.1906C148.767 26.8967 152.629 22.8787 155.494 19.9597C158.359 17.0408 156.494 18.9531 156.527 18.9419C156.56 18.9307 156.379 18.7879 157.673 19.6488C158.967 20.5096 162.123 21.6681 162.56 21.4456C162.997 21.2232 162.883 20.9419 163.565 16.2451C164.248 11.5484 164.72 8.98427 165.05 7.09826C165.381 5.21225 165.084 2.76035 165.05 2.3634C165.017 1.96645 165.097 -0.374503 163.823 0.051609C163.069 0.304116 163.1 0.342302 161.924 0.99869C160.747 1.65508 159.689 2.19737 157.966 3.05777Z" fill="#FF6003"/>
<path d="M241.065 30.8367H230.684L230.747 35.2347C233.599 36.2819 235.654 37.6536 236.913 39.35C238.213 41.1092 238.863 43.4862 238.863 46.481C238.863 50.7952 237.133 54.5021 233.673 57.6017C233.022 58.188 232.026 58.9525 230.684 59.8949C229.027 61.0677 227.979 61.6541 227.538 61.6541C227.098 61.6541 225.074 59.8111 221.467 56.1252C223.69 55.9995 226.007 55.2875 228.419 53.989C230.705 52.7743 232.645 51.2874 234.239 49.5282C235.958 47.6433 236.818 45.6433 236.818 43.5281C236.818 41.4338 235.654 39.9783 233.326 39.1615C232.194 38.7636 231.072 38.5856 229.96 38.6275C223.165 38.8997 219.002 42.8474 217.471 50.4706L211.022 47.8318C211.022 46.0726 211.704 44.104 213.067 41.9259C213.571 41.1301 213.833 40.6798 213.854 40.5751C213.854 39.5908 212.438 39.0987 209.607 39.0987C205.979 39.0987 203.158 40.6903 201.145 43.8736C200.264 45.2768 199.823 46.68 199.823 48.0831C199.823 51.0151 201.176 53.7901 203.881 56.4079L209.859 62.1881C206.209 60.9316 202.822 59.1095 199.697 56.7221C195.524 53.5387 193.437 50.1251 193.437 46.481C193.437 41.8736 195.765 38.439 200.421 36.1771C202.455 35.1928 204.553 34.7007 206.713 34.7007C209.481 34.7007 212.249 35.5279 215.018 37.1824C216.066 37.8107 216.675 38.1458 216.842 38.1877C218.436 37.4965 220.187 36.7531 222.096 35.9572C223.102 35.5384 224.12 35.2557 225.147 35.1091L225.21 30.8367H192.493V27.067H241.065V30.8367Z" fill="black"/>
<path d="M271.423 30.8367H250.471V35.863C250.555 35.863 250.639 35.9049 250.723 35.9887C250.807 36.0724 250.88 36.1143 250.943 36.1143C250.775 36.1143 250.681 36.1038 250.66 36.0829C250.66 35.9782 252.222 35.6431 255.347 35.0776C256.501 34.8682 257.644 34.7635 258.776 34.7635C263.495 34.7635 266.526 36.0829 267.868 38.7217C268.77 40.4809 269.22 44.0307 269.22 49.3711V61.4656C268.78 61.2981 267.113 60.6174 264.219 59.4237C264.219 58.7535 264.082 58.3242 263.81 58.1357C262.698 58.7849 261.786 59.2771 261.073 59.6122C258.808 60.6802 256.176 61.2143 253.177 61.2143C249.045 61.2143 245.857 59.9158 243.613 57.3189C242.523 56.0624 241.978 54.6592 241.978 53.1094C241.978 51.3712 242.837 49.6434 244.557 47.9261C247.892 44.5962 252.034 42.9312 256.983 42.9312C259.982 42.9312 262.394 43.6223 264.219 45.0045V42.1144C263.296 40.9416 262.394 40.1563 261.513 39.7584C260.653 39.3604 259.468 39.1824 257.958 39.2243C254.582 39.2872 251.488 39.905 248.678 41.0778C247.42 41.6013 246.193 42.0725 244.998 42.4914V40.1667C245.27 39.9364 245.669 39.5908 246.193 39.1301C246.277 39.0254 246.329 38.9625 246.35 38.9416V30.8367H239.901V27.067H271.423V30.8367ZM264.219 50.7219C264.219 49.8004 263.118 48.9732 260.915 48.2402C259.091 47.6329 257.57 47.3292 256.354 47.3292C251.929 47.3292 248.385 48.9209 245.721 52.1042C244.651 53.3817 244.117 54.4288 244.117 55.2456C244.557 56.7744 246.287 57.5388 249.307 57.5388C253.208 57.5388 256.773 56.565 260.003 54.6173C262.813 52.9209 264.219 51.6225 264.219 50.7219Z" fill="black"/>
<path d="M302.818 30.8367H271.014V27.067H302.818V30.8367ZM300.207 42.1144C300.207 43.3501 299.463 44.7428 297.973 46.2925C296.715 47.6119 295.394 48.5962 294.01 49.2455L289.291 43.905C290.717 43.7794 292.07 43.2558 293.349 42.3343C294.817 41.2872 295.551 40.0934 295.551 38.7531C295.551 38.0411 295.09 37.4337 294.167 36.9311C293.37 36.4703 292.584 36.24 291.808 36.24C290.193 36.24 288.463 37.0149 286.617 38.5646C282.863 41.706 280.986 45.1826 280.986 48.9941V62.3138L274.946 59.1724V35.9258H281.049V38.3133C281.951 37.4128 283.817 36.4703 286.648 35.486C288.033 35.0043 289.459 34.7635 290.927 34.7635C293.968 34.7635 296.547 35.9258 298.666 38.2505C299.693 39.3814 300.207 40.6694 300.207 42.1144Z" fill="black"/>
<path d="M335 66.2406C335 70.1359 333.113 72.0836 329.337 72.0836C327.66 72.0836 325.227 71.2878 322.039 69.6961C318.516 67.9369 315.559 67.0573 313.168 67.0573C308.03 67.0573 303.185 69.0783 298.634 73.1203C296.453 75.068 294.744 77.3612 293.506 80C293.422 79.6649 293.381 79.1309 293.381 78.3979C293.381 75.8847 294.136 73.3821 295.646 70.8899C297.03 68.5862 298.823 66.6594 301.025 65.1097C303.5 63.3714 306.32 62.5023 309.487 62.5023C311.668 62.5023 313.566 62.8688 315.181 63.6018C316.041 63.9997 317.698 65.0259 320.152 66.6804C322.249 68.1045 323.853 68.8165 324.965 68.8165C327.733 68.8165 329.935 67.6751 331.571 65.3924C332.284 64.4081 332.641 63.4447 332.641 62.5023C332.641 60.8478 332.137 59.4656 331.131 58.3556C330.124 57.2247 328.803 56.6592 327.167 56.6592C325.657 56.6592 323.172 57.4236 319.711 58.9525C316.251 60.4603 313.766 61.2143 312.256 61.2143C311.144 61.2143 309.802 60.6593 308.229 59.5493C304.957 57.2247 303.321 55.0571 303.321 53.0466C303.321 51.9366 303.94 50.9209 305.177 49.9994C306.289 49.1407 307.432 48.6591 308.606 48.5544L308.669 48.2088L307.128 46.0412C306.268 44.8265 305.838 43.5176 305.838 42.1144C305.838 37.2976 309.781 34.8892 317.666 34.8892C317.897 34.8473 318.054 34.6588 318.138 34.3237V30.8367H301.843V27.067H334.182V30.8367H323.014V36.1143C323.014 37.0986 323.297 37.706 323.864 37.9363C324.22 37.9363 324.671 37.6117 325.216 36.9625L326.412 35.5174C326.726 35.2033 327.293 34.9939 328.111 34.8892C329.432 34.8892 330.69 35.6431 331.886 37.151C332.431 37.8421 332.787 38.5332 332.955 39.2243L329.652 42.994C329.61 42.0307 329.411 41.1511 329.054 40.3552C328.572 39.2871 327.943 38.7531 327.167 38.7531C326.873 38.7531 326.527 38.8892 326.129 39.1615C325.73 39.4337 325.531 39.706 325.531 39.9783C325.531 40.2924 325.667 40.6694 325.94 41.1092C326.255 41.6327 326.433 41.9574 326.475 42.083C326.622 42.5647 326.695 43.172 326.695 43.905C326.695 46.7323 325.542 48.6486 323.235 49.6538C321.704 50.324 319.292 50.6591 315.999 50.6591C311.805 50.6591 308.942 51.5911 307.411 53.455C306.803 54.188 306.509 54.7848 306.53 55.2456C306.551 55.8739 306.866 56.4289 307.474 56.9105C308.082 57.3713 308.711 57.6017 309.361 57.6017C310.557 57.6017 312.853 56.7744 316.251 55.1199C320.256 53.1722 323.486 52.1775 325.94 52.1356C328.184 52.0937 330.072 53.0885 331.602 55.1199C332.84 56.7325 333.731 58.7849 334.276 61.2771C334.759 63.4761 335 65.1306 335 66.2406ZM322.763 41.0149C322.763 38.4809 321.41 37.2138 318.705 37.2138C316.523 37.2138 314.458 37.9782 312.507 39.507C310.41 41.1406 309.361 43.015 309.361 45.1302C309.361 46.2821 309.802 47.2664 310.683 48.0831C311.584 48.8999 312.612 49.3083 313.766 49.3083C314.961 49.3292 316.314 48.8999 317.824 48.0203C319.166 47.2454 320.277 46.3449 321.158 45.3187C322.228 44.0621 322.763 42.6275 322.763 41.0149Z" fill="black"/>
<path d="M17.8677 44.8019H32.3294L29.0908 60.9718H22.5021L21.4412 57.4032H21.2179C20.2501 58.5184 19.0961 59.4663 17.756 60.2469C16.4532 61.0275 14.7408 61.4178 12.6191 61.4178C10.9812 61.4178 9.39915 61.1576 7.87295 60.6372C6.38398 60.0796 5.0439 59.2247 3.85272 58.0723C2.69877 56.8828 1.76816 55.3402 1.06089 53.4444C0.353631 51.5486 0 49.2625 0 46.5861C0 43.6867 0.446692 40.936 1.34008 38.3339C2.23346 35.7319 3.57354 33.4458 5.36031 31.4757C7.14708 29.4684 9.38054 27.8886 12.0607 26.7362C14.7408 25.5839 17.8677 25.0077 21.4412 25.0077C24.1958 25.0077 26.5968 25.3237 28.6441 25.9556C30.6915 26.5875 32.6272 27.2938 34.4511 28.0744L32.3294 38.8915H22.893C22.9302 38.4826 22.986 37.9994 23.0605 37.4418C23.1349 36.8842 23.1908 36.3081 23.228 35.7133C23.2652 35.0814 23.3025 34.468 23.3397 33.8733C23.3769 33.2785 23.3955 32.7581 23.3955 32.3121C23.3955 32.0147 23.3769 31.6801 23.3397 31.3084C23.3025 30.8995 23.2094 30.5092 23.0605 30.1375C22.9116 29.7658 22.6883 29.4684 22.3905 29.2454C22.0927 28.9851 21.6646 28.855 21.1062 28.855C20.1384 28.855 19.245 29.2639 18.4261 30.0817C17.6444 30.8623 16.9371 31.9217 16.3043 33.2599C15.6715 34.561 15.1131 36.0478 14.6292 37.7206C14.1825 39.3933 13.7916 41.1033 13.4566 42.8503C13.1588 44.5603 12.9169 46.2516 12.7307 47.9243C12.5818 49.5599 12.5074 50.991 12.5074 52.2177C12.5074 52.5894 12.526 53.0541 12.5632 53.6117C12.6004 54.1693 12.7121 54.7268 12.8982 55.2844C13.1216 55.8048 13.4194 56.2695 13.7916 56.6784C14.2011 57.0501 14.7781 57.236 15.5226 57.236C16.751 57.236 17.9421 56.5669 19.0961 55.2287C20.2501 53.8905 21.1248 51.6601 21.7204 48.5377H17.0301L17.8677 44.8019Z" fill="black"/>
<path d="M37.2766 36.9957H46.3779L47.2155 41.1776H47.6063C48.4625 39.8394 49.5606 38.7057 50.9007 37.7764C52.2408 36.8471 54.0089 36.3824 56.2052 36.3824C56.3541 36.3824 56.5774 36.401 56.8752 36.4382C57.2102 36.4382 57.5638 36.4939 57.9361 36.6054C58.3456 36.6798 58.755 36.8099 59.1645 36.9957C59.6112 37.1444 60.0393 37.3675 60.4487 37.6648L57.9919 49.151H51.9057C51.8313 46.8463 51.6266 45.2479 51.2915 44.3558C50.9565 43.4265 50.4168 42.9619 49.6723 42.9619C49.3 42.9619 48.8906 43.0548 48.4439 43.2407C48.0344 43.3893 47.6063 43.7425 47.1596 44.3001L43.5861 60.9718H32.1954L37.2766 36.9957Z" fill="black"/>
<path d="M76.2169 36.3824C80.6466 36.3824 83.8665 37.163 85.8766 38.7242C87.9984 40.3598 89.0593 43.0734 89.0593 46.8649C89.0593 49.2068 88.6684 51.3256 87.8867 53.2214C87.105 55.08 86.0069 56.6226 84.5924 57.8493C81.7633 60.2283 77.6686 61.4178 72.3083 61.4178C67.7297 61.4178 64.454 60.5443 62.4811 58.7972C60.3593 56.9757 59.2984 54.2436 59.2984 50.6007C59.2984 48.1845 59.7823 45.9914 60.7502 44.0213C61.7552 42.0511 63.1884 40.4156 65.0496 39.1145C67.767 37.2931 71.4894 36.3824 76.2169 36.3824ZM72.42 57.6263C73.3506 57.6263 74.1509 57.1059 74.821 56.065C75.5282 55.0242 76.0866 53.7604 76.4961 52.2735C76.9055 50.7494 77.2033 49.1882 77.3895 47.5898C77.6128 45.9542 77.7245 44.5417 77.7245 43.3522C77.7245 42.3114 77.6128 41.5307 77.3895 41.0103C77.2033 40.4527 76.7753 40.174 76.1052 40.174C75.1002 40.174 74.2254 40.713 73.4809 41.7909C72.7736 42.8689 72.1967 44.1514 71.75 45.6383C71.3033 47.1251 70.9683 48.6492 70.7449 50.2104C70.5588 51.7717 70.4657 53.0355 70.4657 54.002C70.4657 56.4182 71.1172 57.6263 72.42 57.6263Z" fill="black"/>
<path d="M90.4364 36.9957H102.274L104.228 53.3886L110.984 36.9957H121.649L123.548 53.3886L130.304 36.9957H136.222L125.111 60.9718H113.441L111.375 48.8165L105.736 60.9718H94.0658L90.4364 36.9957Z" fill="black"/>
<path d="M136.393 36.9957C137.77 36.6984 138.98 36.3638 140.022 35.9921C141.065 35.6204 142.014 35.1557 142.87 34.5981C143.763 34.0406 144.601 33.3529 145.383 32.5351C146.202 31.7173 147.076 30.7136 148.007 29.5241H153.758L152.139 36.9957H156.494L155.768 40.7315H151.357L149.068 51.6044C148.882 52.4593 148.733 53.2214 148.621 53.8905C148.51 54.5596 148.454 55.08 148.454 55.4517C148.454 56.1951 148.714 56.6598 149.235 56.8456C149.794 57.0315 150.817 57.1244 152.306 57.1244L151.469 60.9718C151.208 61.0461 150.799 61.1019 150.24 61.139C149.719 61.1762 149.124 61.2134 148.454 61.2505C147.821 61.3249 147.151 61.3621 146.444 61.3621C145.774 61.3992 145.178 61.4178 144.657 61.4178C143.726 61.4178 142.814 61.3435 141.921 61.1948C141.027 61.0833 140.227 60.8417 139.52 60.4699C138.813 60.061 138.236 59.4849 137.789 58.7414C137.379 57.998 137.175 56.9943 137.175 55.7305C137.175 55.2844 137.193 54.7268 137.231 54.0577C137.305 53.3886 137.435 52.6452 137.621 51.8274L139.967 40.7315H135.611L136.393 36.9957Z" fill="black"/>
<path d="M169.761 40.5643H170.152C170.859 39.858 171.678 39.2075 172.609 38.6127C173.39 38.0923 174.321 37.6277 175.4 37.2188C176.48 36.8099 177.69 36.6054 179.03 36.6054C180.966 36.6054 182.566 37.1073 183.832 38.1109C185.097 39.0774 185.73 40.4156 185.73 42.1255C185.73 42.6459 185.674 43.2407 185.563 43.9098C185.451 44.5417 185.321 45.2294 185.172 45.9728C185.023 46.6791 184.855 47.4039 184.669 48.1474C184.52 48.8536 184.39 49.5042 184.279 50.0989L181.933 60.9718H170.599L173.67 46.4189C173.744 45.9356 173.837 45.4524 173.949 44.9692C174.06 44.4487 174.116 43.9841 174.116 43.5752C174.116 43.0176 173.967 42.5716 173.67 42.237C173.409 41.8653 172.999 41.6794 172.441 41.6794C171.771 41.6794 171.12 41.921 170.487 42.4043C169.891 42.8875 169.426 43.315 169.091 43.6867L165.406 60.9718H154.015L161.944 23.5023H173.39L169.761 40.5643Z" fill="black"/>
</svg>
