<svg width="102" height="62" viewBox="0 0 102 62" fill="none" xmlns="http://www.w3.org/2000/svg">
<path d="M87.72 30.5297C87.72 32.3997 86.79 32.6297 84.46 32.6297C81.89 32.6297 81.43 32.1597 81.2 30.2997C80.73 25.3997 77.47 21.1997 71.87 20.9697C70.24 20.7397 69.77 20.2697 69.77 17.9397C69.77 15.8397 70 14.9097 71.64 14.9097C80.97 15.1397 87.73 22.8397 87.73 30.5397L87.72 30.5297ZM101.48 30.5297C101.48 16.0697 91.69 0.679688 68.83 0.679688H23.82C22.89 0.679688 22.19 1.1497 22.19 2.0797C22.19 2.5497 22.42 3.00969 22.89 3.24969C24.52 4.64969 26.85 6.04969 30.12 7.67969C33.15 9.30969 35.72 10.2497 38.05 11.1797C38.98 11.6497 39.45 12.1097 39.45 12.5797C39.45 13.2797 38.98 13.9797 37.82 13.9797H2.13C0.959999 13.7497 0.5 14.4497 0.5 15.1497C0.5 15.8497 0.730001 16.3197 1.2 16.7797C4 19.8097 8.66 23.5397 15.43 27.7397C21.26 31.4697 28.72 35.4397 34.55 38.2297C35.48 38.6997 35.95 39.1597 35.95 39.8597C35.95 40.5597 35.48 41.0297 34.32 41.0297H17.76C16.83 41.0297 16.36 41.4997 16.36 42.1997C16.36 42.6697 16.59 43.1297 17.06 43.5997C20.79 47.0997 26.85 50.5997 34.78 54.0897C45.51 58.5197 56.24 61.3197 68.36 61.3197C91.45 61.3197 101.48 44.0597 101.48 30.5397V30.5297ZM71.4 51.2897C60.21 51.2897 50.64 42.1897 50.64 30.5297C50.64 18.8697 59.97 10.2397 71.4 10.2397C82.83 10.2397 92.16 19.3397 92.16 30.5297C92.16 41.7197 83.06 51.2897 71.4 51.2897Z" fill="#FF642D"/>
</svg>
